<?xml version="1.0" encoding="utf-8"?>
<!-- Generator: Adobe Illustrator 27.3.1, SVG Export Plug-In . SVG Version: 6.00 Build 0)  -->
<svg version="1.1" id="Calque_1" xmlns="http://www.w3.org/2000/svg" xmlns:xlink="http://www.w3.org/1999/xlink" x="0px" y="0px"
	 viewBox="0 0 1462.9 255" style="enable-background:new 0 0 1462.9 255;" xml:space="preserve">
<style type="text/css">
	.st0{fill:#F05C39;}
	.st1{fill:#374151;}
</style>
<g>
	<g>
		<path class="st0" d="M1248.9,178.1l-25.5,76.9h-54.3l92-255h63.9l90.2,255h-55.4l-25.1-76.9H1248.9z M1261.9,137.9h59.9
			l-29.6-94.2L1261.9,137.9z"/>
		<path class="st0" d="M1411.9,255V0h51v255H1411.9z"/>
	</g>
	<g>
		<g>
			<g>
				<path class="st1" d="M551.7,244h-49.8L425,146.4l-20.7,22.3V244h-37.3V10.3h37.3v118.9L513.1,10.3h44l-105,113.1L551.7,244z"/>
				<path class="st1" d="M657,217.9l-9.1,19.3c-12.2,8.5-27.8,11.5-44.7,11.5c-31.8,0-57.9-18.3-57.9-51.8c0-40,31.8-61.6,99.9-61.6
					h11.5v-4.4c0-6.8,0-12.9-0.7-19.6c-1-14.6-10.2-24.7-31.5-24.7c-21.7,0-32.8,12.2-34.9,34.5h-37.3c2.4-39.3,31.8-61.6,72.8-61.6
					c46.4,0,64.7,19.6,67.7,50.1c0.7,7.4,1,16.9,1,25.4v63.3c0,13.5,0.7,25.7,3.4,45.7h-36.9L657,217.9z M656.7,176.6V160
					c-43.7-3.4-72.1,6.4-72.1,33.9c0,19,12.5,27.8,32.2,27.8C640.1,221.6,656.7,205.7,656.7,176.6z"/>
				<path class="st1" d="M768.7,22.8c0,12.5-9.5,21.7-22,21.7c-12.5,0-21.7-9.1-21.7-21.7c0-12.2,9.1-21.3,21.7-21.3
					C759.3,1.5,768.7,10.6,768.7,22.8z M728.1,244V64.1h37.3V244H728.1z"/>
				<path class="st1" d="M849.7,185.7c0,6.1,0,10.2,0.3,14.9c1.4,17.6,8.1,21.3,32.5,19v25.7c-9.5,1.4-18.3,2-27.4,2
					c-28.1,0-40.3-10.5-42-34.2c-0.3-6.1-0.3-13.9-0.3-24V91.6h-25.4V65.5h25.4v-43h36.9v43h35.2v26.1h-35.2V185.7z"/>
				<path class="st1" d="M1075.5,153.9c0,52.5-30.8,94.8-91.1,94.8c-60.6,0-91.1-42.3-91.1-94.8c0-52.5,30.5-94.5,91.1-94.5
					C1044.7,59.4,1075.5,101.4,1075.5,153.9z M1035.9,153.9c0-40.6-19-67.4-51.5-67.4c-32.9,0-51.8,26.8-51.8,67.4
					s19,67.7,51.8,67.7C1016.9,221.6,1035.9,194.5,1035.9,153.9z"/>
				<path class="st1" d="M1225.5,115.6h-37.9c-3.7-19-14.9-30.1-33.2-30.1c-17.6,0-26.1,9.8-26.1,23.4c0,16.3,13.2,23,40,30.1
					c39.3,10.2,59.9,25.7,59.9,57.6c0,34.9-30.8,52.2-70.1,52.2c-40,0-69.4-17.9-74.5-58.6h37.6c4.4,23,19.6,32.2,38.3,32.2
					c17.3,0,31.2-7.5,31.2-23s-12.2-24-42.7-32.2c-32.9-8.5-57.2-22.4-57.2-53.8c0-33.5,26.4-53.9,66.4-53.9
					C1198.4,59.4,1221.5,82.8,1225.5,115.6z"/>
			</g>
		</g>
		<g>
			<path class="st0" d="M222.3,64.9c-6-5.5-9.6-12.8-11.4-20.9c-2.4-10.9-8.9-20.5-18.5-26.2C172.7,6.1,149.7-0.4,125.2,0
				C58.1,1.2,2.7,55.4,0.1,122.5c-0.7,17.3,2.1,33.9,7.8,49.1c4.1,11,14.3,18.3,25.9,19.5c10.1,1,19.5,4.5,26.4,11.2
				c6.5,6.3,10.1,14.8,11.4,24c1.7,11.7,10.6,21,22,24.1c13.8,3.8,28.6,5.4,43.9,4.2c61.4-4.7,111.2-53.6,117-115
				c1.4-14.9,0.2-29.4-3.2-43c-2.8-11.1-10.1-20.8-20.4-25.9C227.8,69.2,224.9,67.3,222.3,64.9z M60,152.6
				c-17.2-17.2-22.1-65.2,3.5-90.8c25.5-25.5,71.8-18.8,89-1.7c17.2,17.2,10.4,51.8-15.1,77.3C111.8,163,77.1,169.8,60,152.6z
				 M191.8,193.5c-19.9,19.9-50.8,20-60.7,10.1c-10-10-1.9-34.2,18.1-54.1s44.2-28,54.1-18.1C213.3,141.3,211.8,173.5,191.8,193.5z"
				/>
		</g>
	</g>
</g>
</svg>
