<?xml version="1.0" encoding="utf-8"?>
<!-- Generator: Adobe Illustrator 27.3.1, SVG Export Plug-In . SVG Version: 6.00 Build 0)  -->
<svg version="1.1" id="Calque_1" xmlns="http://www.w3.org/2000/svg" xmlns:xlink="http://www.w3.org/1999/xlink" x="0px" y="0px"
	 viewBox="0 0 255 255" style="enable-background:new 0 0 255 255;" xml:space="preserve">
<style type="text/css">
	.st0{fill:#F05C39;}
</style>
<g>
	<g>
		<g>
			<path class="st0" d="M222.3,64.9c-6-5.5-9.6-12.8-11.4-20.9c-2.4-10.9-8.9-20.5-18.5-26.2C172.7,6.1,149.7-0.4,125.2,0
				C58.1,1.2,2.7,55.4,0.1,122.5c-0.7,17.3,2.1,33.9,7.8,49.1c4.1,11,14.3,18.3,25.9,19.5c10.1,1,19.5,4.5,26.4,11.2
				c6.5,6.3,10.1,14.8,11.4,24c1.7,11.7,10.6,21,22,24.1c13.8,3.8,28.6,5.4,43.9,4.2c61.4-4.7,111.2-53.6,117-115
				c1.4-14.9,0.2-29.4-3.2-43c-2.8-11.1-10.1-20.8-20.4-25.9C227.8,69.2,224.9,67.3,222.3,64.9z M60,152.6
				c-17.2-17.2-22.1-65.2,3.5-90.8c25.5-25.5,71.8-18.8,89-1.7c17.2,17.2,10.4,51.8-15.1,77.3C111.8,163,77.1,169.8,60,152.6z
				 M191.8,193.5c-19.9,19.9-50.8,20-60.7,10.1c-10-10-1.9-34.2,18.1-54.1s44.2-28,54.1-18.1C213.3,141.3,211.8,173.5,191.8,193.5z"
				/>
		</g>
	</g>
</g>
</svg>
